<?xml version="1.0" encoding="UTF-8"?>
<svg width="830px" height="793px" viewBox="0 0 830 793" version="1.1" xmlns="http://www.w3.org/2000/svg" xmlns:xlink="http://www.w3.org/1999/xlink">
    <title>编组</title>
    <defs>
        <polygon id="path-1" points="0 0 579.338238 0 579.338238 792.056625 0 792.056625"></polygon>
    </defs>
    <g id="3" stroke="none" stroke-width="1" fill="none" fill-rule="evenodd">
        <g id="编组" transform="translate(0.000000, -0.000099)">
            <g transform="translate(0.000000, 0.000099)">
                <mask id="mask-2" fill="white">
                    <use xlink:href="#path-1"></use>
                </mask>
                <g id="Clip-2"></g>
                <path d="M0,378.8644 C0.315,386.1574 0.688,395.4194 1.122,404.6784 C1.582,414.4984 2.708,424.2524 3.998,433.9944 C5.403,444.6104 7.252,455.1484 9.525,465.6054 C13.705,484.8394 19.211,503.6924 26.095,522.1414 C34.389,544.3684 44.505,565.7314 56.472,586.2124 C69.582,608.6494 84.646,629.6864 101.712,649.2894 C117.084,666.9484 133.793,683.2324 151.89,698.0804 C171.353,714.0514 192.1,728.1364 214.133,740.3344 C234.678,751.7084 256.03,761.2624 278.191,769.0104 C294.955,774.8714 312.016,779.7204 329.431,783.1854 C339.998,785.2874 350.646,787.0294 361.311,788.5724 C368.493,789.6144 375.756,790.1554 383,790.6884 C390.887,791.2694 398.789,791.7834 406.692,791.9664 C418.603,792.2424 430.51,791.8554 442.412,791.2104 C451.988,790.6934 461.531,789.9074 471.054,788.7744 C481.374,787.5454 491.613,785.8804 501.708,783.4034 C508.624,781.7054 515.479,779.7604 521.81,776.4064 C523.837,775.3324 525.792,773.9944 527.492,772.4584 C529.999,770.1934 530.136,767.4234 528.141,764.7264 C527.385,763.7044 526.485,762.7694 525.551,761.9044 C521.77,758.4004 517.393,755.7344 512.957,753.1764 C499.707,745.5394 485.782,739.2504 471.946,732.7924 C459.335,726.9064 446.82,720.8404 434.709,713.9654 C415.775,703.2164 397.438,691.5354 379.765,678.8194 C351.908,658.7744 325.83,636.6794 302.275,611.6654 C284.792,593.0994 268.961,573.2474 255.334,551.6674 C242.431,531.2334 231.841,509.6764 224.13,486.7564 C219.257,472.2714 215.627,457.4734 213.353,442.3384 C212.057,433.7174 211.013,425.0684 210.711,416.3724 C210.147,400.1404 210.591,383.9404 212.899,367.8114 C214.94,353.5434 217.992,339.5164 222.225,325.7544 C230.319,299.4464 242.171,274.8964 257.136,251.8264 C276.516,221.9504 300.108,195.7624 326.848,172.3464 C345.177,156.2954 364.713,141.8594 385.376,128.9524 C407.333,115.2364 430.201,103.3194 454.472,94.2054 C464.885,90.2964 475.472,86.9514 486.446,85.0034 C501.781,82.2804 517.16,79.8424 532.71,78.7234 C540.755,78.1444 548.815,77.7614 556.872,77.3414 C561.1,77.1204 565.336,77.0554 569.565,76.8384 C572.252,76.6994 574.737,75.8814 576.894,74.2004 C579.433,72.2214 579.986,70.7094 578.59,67.7624 C577.505,65.4724 576.142,63.2544 574.572,61.2644 C568.717,53.8434 561.387,48.0184 553.701,42.6384 C537.473,31.2804 519.786,22.7994 501.168,16.1704 C475.544,7.0454 449.07,2.1824 421.981,0.4934 C416.08,0.1254 410.156,0.0324 404.242,-9.87692822e-05 C399.048,-0.0236 393.851,0.1574 388.659,0.3544 C381.873,0.6114 375.076,0.7954 368.31,1.3354 C358.204,2.1404 348.093,3.0054 338.036,4.2604 C328.297,5.4754 318.583,6.9954 308.93,8.7734 C293.053,11.6984 277.4,15.6014 261.954,20.3214 C228.759,30.4644 197.245,44.3354 167.718,62.6454 C137.315,81.4984 110.272,104.2944 86.805,131.3194 C68.142,152.8124 52.486,176.3204 39.699,201.7264 C30.083,220.8344 22.318,240.6904 16.296,261.2224 C12.449,274.3404 9.286,287.6164 6.879,301.0744 C5.051,311.2984 3.46,321.5524 2.539,331.9014 C1.93,338.7414 1.168,345.5754 0.804,352.4294 C0.371,360.5694 0.29,368.7284 0,378.8644" id="Fill-1" fill="#FFFFFF" mask="url(#mask-2)"></path>
            </g>
            <path d="M616.5873,722.311299 C622.2373,721.890299 627.9093,721.660299 633.5333,721.007299 C644.3673,719.750299 654.3183,716.151299 663.0833,709.452299 C672.8753,701.967299 682.4453,694.227299 691.6143,685.989299 C710.2283,669.263299 727.2293,651.037299 742.5513,631.256299 C761.4793,606.820299 777.5093,580.611299 790.5783,552.586299 C798.9723,534.589299 806.0463,516.095299 811.7363,497.076299 C812.3213,495.123299 812.5033,492.995299 812.526668,490.944299 C812.5523,488.535299 811.1993,487.316299 808.7693,487.198299 C807.9043,487.155299 806.9883,487.209299 806.1663,487.456299 C803.7983,488.167299 801.3923,488.827299 799.1353,489.814299 C790.7873,493.465299 782.5673,497.416299 774.1643,500.932299 C757.0443,508.094299 739.4743,514.002299 721.6513,519.160299 C699.3773,525.605299 676.7943,530.718299 653.9433,534.620299 C645.1313,536.124299 636.2683,537.341299 627.4123,538.576299 C621.2463,539.435299 615.0643,540.215299 608.8683,540.822299 C602.1943,541.475299 595.5003,541.964299 588.8063,542.380299 C580.5133,542.896299 572.2153,543.427299 563.9113,543.648299 C555.8373,543.863299 547.7493,543.861299 539.6753,543.649299 C530.2523,543.402299 520.8323,542.903299 511.4193,542.364299 C504.6433,541.977299 497.8573,541.553299 491.1183,540.774299 C482.2393,539.747299 473.3843,538.467299 464.5503,537.096299 C449.8443,534.814299 435.4083,531.323299 421.1983,526.915299 C394.2763,518.563299 369.2353,506.288299 345.8623,490.574299 C327.8363,478.455299 310.9443,464.876299 295.0173,450.140299 C282.8083,438.843299 270.9713,427.144299 258.9693,415.625299 C258.4493,415.126299 257.9673,414.582299 257.4033,414.140299 C255.5063,412.656299 253.4373,412.560299 251.3263,413.594299 C249.3483,414.563299 248.6883,416.268299 248.9123,418.378299 C249.0223,419.410299 249.1943,420.436299 249.2753,421.471299 C250.0363,431.208299 251.7543,440.790299 253.9893,450.285299 C259.7493,474.754299 269.4633,497.647299 281.7893,519.473299 C293.7913,540.724299 308.1053,560.341299 324.2063,578.653299 C344.6703,601.928299 367.4743,622.665299 392.4123,641.060299 C420.9213,662.089299 451.4283,679.619299 484.1223,693.293299 C516.7413,706.936299 550.4823,716.357299 585.7123,720.152299 C595.9693,721.256299 606.2403,722.003299 616.5873,722.311299" id="Fill-3" fill="#2B4FFC"></path>
            <path d="M561.8539,504.974399 C561.8549,505.039399 561.8559,505.106399 561.8569,505.172399 C569.0509,504.997399 576.2479,504.914399 583.4359,504.625399 C593.4949,504.220399 603.5539,503.763399 613.6009,503.133399 C621.0109,502.668399 628.4169,502.035399 635.7969,501.217399 C646.1899,500.067399 656.5729,498.792399 666.9319,497.364399 C682.0479,495.279399 697.0349,492.444399 711.9459,489.200399 C741.8959,482.685399 771.2409,474.119399 799.9069,463.254399 C804.4619,461.528399 809.0769,459.931399 813.2159,457.253399 C819.1569,453.409399 823.0739,448.148399 824.3019,441.141399 C825.1829,436.111399 825.8189,431.032399 826.3959,425.955399 C827.0339,420.323399 827.5839,414.676399 827.9849,409.022399 C828.5109,401.612399 829.0669,394.193399 829.2269,386.770399 C829.4759,375.180399 829.4109,363.581399 828.4119,352.016399 C827.7669,344.537399 827.2509,337.039399 826.3129,329.597399 C824.7339,317.072399 822.4189,304.663399 819.4959,292.378399 C818.0539,286.319399 816.4869,280.288399 814.9189,274.259399 C814.2509,271.690399 813.2769,269.224399 811.4339,267.240399 C809.6779,265.350399 807.5719,264.566399 804.9389,265.192399 C801.3179,266.052399 798.3849,268.092399 795.5729,270.360399 C790.5059,274.447399 786.0979,279.202399 781.9829,284.214399 C774.2129,293.681399 766.0869,302.824399 757.5159,311.570399 C737.5559,331.938399 716.2399,350.787399 693.8089,368.389399 C664.2279,391.599399 632.9769,412.256399 599.7289,429.838399 C569.5409,445.803399 538.1619,458.892399 505.3179,468.361399 C490.7249,472.568399 475.9629,476.073399 460.9699,478.556399 C456.8619,479.236399 452.7299,479.903399 449.0239,481.895399 C446.7219,483.132399 444.4149,484.515399 442.4779,486.245399 C439.7089,488.715399 440.0749,491.728399 443.3099,493.521399 C445.5179,494.745399 447.9449,495.762399 450.3989,496.314399 C454.3619,497.204399 458.4179,497.719399 462.4549,498.242399 C469.5809,499.163399 476.7179,500.011399 483.8579,500.816399 C489.5709,501.460399 495.2889,502.078399 501.0179,502.555399 C506.7489,503.032399 512.4929,503.370399 518.2369,503.673399 C527.2539,504.149399 536.2719,504.636399 545.2959,504.940399 C550.8089,505.124399 556.3339,504.974399 561.8539,504.974399" id="Fill-5" fill="#2B4FFC"></path>
            <path d="M0,378.864499 C0.29,368.728499 0.371,360.569499 0.804,352.429499 C1.168,345.575499 1.93,338.741499 2.539,331.901499 C3.46,321.552499 5.051,311.298499 6.879,301.074499 C9.286,287.616499 12.449,274.340499 16.296,261.222499 C22.318,240.690499 30.083,220.834499 39.699,201.726499 C52.486,176.320499 68.142,152.812499 86.805,131.319499 C110.272,104.294499 137.315,81.4984988 167.718,62.6454988 C197.245,44.3354988 228.759,30.4644988 261.954,20.3214988 C277.4,15.6014988 293.053,11.6984988 308.93,8.77349877 C318.583,6.99549877 328.297,5.47549877 338.036,4.26049877 C348.093,3.00549877 358.204,2.14049877 368.31,1.33549877 C375.076,0.795498769 381.873,0.611498769 388.659,0.354498769 C393.851,0.157498769 399.048,-0.0235012307 404.242,0 C410.156,0.0324987693 416.08,0.125498769 421.981,0.493498769 C449.07,2.18249877 475.544,7.04549877 501.168,16.1704988 C519.786,22.7994988 537.473,31.2804988 553.701,42.6384988 C561.387,48.0184988 568.717,53.8434988 574.572,61.2644988 C576.142,63.2544988 577.505,65.4724988 578.59,67.7624988 C579.986,70.7094988 579.433,72.2214988 576.894,74.2004988 C574.737,75.8814988 572.252,76.6994988 569.565,76.8384988 C565.336,77.0554988 561.1,77.1204988 556.872,77.3414988 C548.815,77.7614988 540.755,78.1444988 532.71,78.7234988 C517.16,79.8424988 501.781,82.2804988 486.446,85.0034988 C475.472,86.9514988 464.885,90.2964988 454.472,94.2054988 C430.201,103.319499 407.333,115.236499 385.376,128.952499 C364.713,141.859499 345.177,156.295499 326.848,172.346499 C300.108,195.762499 276.516,221.950499 257.136,251.826499 C242.171,274.896499 230.319,299.446499 222.225,325.754499 C217.992,339.516499 214.94,353.543499 212.899,367.811499 C210.591,383.940499 210.147,400.140499 210.711,416.372499 C211.013,425.068499 212.057,433.717499 213.353,442.338499 C215.627,457.473499 219.257,472.271499 224.13,486.756499 C231.841,509.676499 242.431,531.233499 255.334,551.667499 C268.961,573.247499 284.792,593.099499 302.275,611.665499 C325.83,636.679499 351.908,658.774499 379.765,678.819499 C397.438,691.535499 415.775,703.216499 434.709,713.965499 C446.82,720.840499 459.335,726.906499 471.946,732.792499 C485.782,739.250499 499.707,745.539499 512.957,753.176499 C517.393,755.734499 521.77,758.400499 525.551,761.904499 C526.485,762.769499 527.385,763.704499 528.141,764.726499 C530.136,767.423499 529.999,770.193499 527.492,772.458499 C525.792,773.994499 523.837,775.332499 521.81,776.406499 C515.479,779.760499 508.624,781.705499 501.708,783.403499 C491.613,785.880499 481.374,787.545499 471.054,788.774499 C461.531,789.907499 451.988,790.693499 442.412,791.210499 C430.51,791.855499 418.603,792.242499 406.692,791.966499 C398.789,791.783499 390.887,791.269499 383,790.688499 C375.756,790.155499 368.493,789.614499 361.311,788.572499 C350.646,787.029499 339.998,785.287499 329.431,783.185499 C312.016,779.720499 294.955,774.871499 278.191,769.010499 C256.03,761.262499 234.678,751.708499 214.133,740.334499 C192.1,728.136499 171.353,714.051499 151.89,698.080499 C133.793,683.232499 117.084,666.948499 101.712,649.289499 C84.646,629.686499 69.582,608.649499 56.472,586.212499 C44.505,565.731499 34.389,544.368499 26.095,522.141499 C19.211,503.692499 13.705,484.839499 9.525,465.605499 C7.252,455.148499 5.403,444.610499 3.998,433.994499 C2.708,424.252499 1.582,414.498499 1.122,404.678499 C0.688,395.419499 0.315,386.157499 0,378.864499" id="Fill-7" fill="#2B4FFC"></path>
            <path d="M616.5873,722.311299 C606.2403,722.003299 595.9693,721.256299 585.7123,720.152299 C550.4823,716.357299 516.7413,706.936299 484.1223,693.293299 C451.4283,679.619299 420.9213,662.089299 392.4123,641.060299 C367.4743,622.665299 344.6703,601.928299 324.2063,578.653299 C308.1053,560.341299 293.7913,540.724299 281.7893,519.473299 C269.4633,497.647299 259.7493,474.754299 253.9893,450.285299 C251.7543,440.790299 250.0363,431.208299 249.2753,421.471299 C249.1943,420.436299 249.0223,419.410299 248.9123,418.378299 C248.6883,416.268299 249.3483,414.563299 251.3263,413.594299 C253.4373,412.560299 255.5063,412.656299 257.4033,414.140299 C257.9673,414.582299 258.4493,415.126299 258.9693,415.625299 C270.9713,427.144299 282.8083,438.843299 295.0173,450.140299 C310.9443,464.876299 327.8363,478.455299 345.8623,490.574299 C369.2353,506.288299 394.2763,518.563299 421.1983,526.915299 C435.4083,531.323299 449.8443,534.814299 464.5503,537.096299 C473.3843,538.467299 482.2393,539.747299 491.1183,540.774299 C497.8573,541.553299 504.6433,541.977299 511.4193,542.364299 C520.8323,542.903299 530.2523,543.402299 539.6753,543.649299 C547.7493,543.861299 555.8373,543.863299 563.9113,543.648299 C572.2153,543.427299 580.5133,542.896299 588.8063,542.380299 C595.5003,541.964299 602.1943,541.475299 608.8683,540.822299 C615.0643,540.215299 621.2463,539.435299 627.4123,538.576299 C636.2683,537.341299 645.1313,536.124299 653.9433,534.620299 C676.7943,530.718299 699.3773,525.605299 721.6513,519.160299 C739.4743,514.002299 757.0443,508.094299 774.1643,500.932299 C782.5673,497.416299 790.7873,493.465299 799.1353,489.814299 C801.3923,488.827299 803.7983,488.167299 806.1663,487.456299 C806.9883,487.209299 807.9043,487.155299 808.7693,487.198299 C811.1993,487.316299 812.5523,488.535299 812.526668,490.944299 C812.5033,492.995299 812.3213,495.123299 811.7363,497.076299 C806.0463,516.095299 798.9723,534.589299 790.5783,552.586299 C777.5093,580.611299 761.4793,606.820299 742.5513,631.256299 C727.2293,651.037299 710.2283,669.263299 691.6143,685.989299 C682.4453,694.227299 672.8753,701.967299 663.0833,709.452299 C654.3183,716.151299 644.3673,719.750299 633.5333,721.007299 C627.9093,721.660299 622.2373,721.890299 616.5873,722.311299" id="Fill-9" fill="#2B4FFC"></path>
            <path d="M561.8539,504.974399 C556.3339,504.974399 550.8089,505.124399 545.2959,504.940399 C536.2719,504.636399 527.2539,504.149399 518.2369,503.673399 C512.4929,503.370399 506.7489,503.032399 501.0179,502.555399 C495.2889,502.078399 489.5709,501.460399 483.8579,500.816399 C476.7179,500.011399 469.5809,499.163399 462.4549,498.242399 C458.4179,497.719399 454.3619,497.204399 450.3989,496.314399 C447.9449,495.762399 445.5179,494.745399 443.3099,493.521399 C440.0749,491.728399 439.7089,488.715399 442.4779,486.245399 C444.4149,484.515399 446.7219,483.132399 449.0239,481.895399 C452.7299,479.903399 456.8619,479.236399 460.9699,478.556399 C475.9629,476.073399 490.7249,472.568399 505.3179,468.361399 C538.1619,458.892399 569.5409,445.803399 599.7289,429.838399 C632.9769,412.256399 664.2279,391.599399 693.8089,368.389399 C716.2399,350.787399 737.5559,331.938399 757.5159,311.570399 C766.0869,302.824399 774.2129,293.681399 781.9829,284.214399 C786.0979,279.202399 790.5059,274.447399 795.5729,270.360399 C798.3849,268.092399 801.3179,266.052399 804.9389,265.192399 C807.5719,264.566399 809.6779,265.350399 811.4339,267.240399 C813.2769,269.224399 814.2509,271.690399 814.9189,274.259399 C816.4869,280.288399 818.0539,286.319399 819.4959,292.378399 C822.4189,304.663399 824.7339,317.072399 826.3129,329.597399 C827.2509,337.039399 827.7669,344.537399 828.4119,352.016399 C829.4109,363.581399 829.4759,375.180399 829.2269,386.770399 C829.0669,394.193399 828.5109,401.612399 827.9849,409.022399 C827.5839,414.676399 827.0339,420.323399 826.3959,425.955399 C825.8189,431.032399 825.1829,436.111399 824.3019,441.141399 C823.0739,448.148399 819.1569,453.409399 813.2159,457.253399 C809.0769,459.931399 804.4619,461.528399 799.9069,463.254399 C771.2409,474.119399 741.8959,482.685399 711.9459,489.200399 C697.0349,492.444399 682.0479,495.279399 666.9319,497.364399 C656.5729,498.792399 646.1899,500.067399 635.7969,501.217399 C628.4169,502.035399 621.0109,502.668399 613.6009,503.133399 C603.5539,503.763399 593.4949,504.220399 583.4359,504.625399 C576.2479,504.914399 569.0509,504.997399 561.8569,505.172399 C561.8559,505.106399 561.8549,505.039399 561.8539,504.974399" id="Fill-11" fill="#2B4FFC"></path>
        </g>
    </g>
</svg>